<svg width="49" height="24" viewBox="0 0 49 24" fill="none" xmlns="http://www.w3.org/2000/svg">
<g clip-path="url(#clip0_392_28)">
<path d="M13.8011 18.7574C13.768 18.7349 13.7276 18.7266 13.6886 18.7343C13.6496 18.7421 13.6151 18.7652 13.5928 18.7986L11.8672 21.4047C11.0682 22.6113 9.41488 23.0498 8.10674 22.1493C6.79676 21.2492 6.57684 19.5253 7.37579 18.3187L9.10139 15.7126C9.14743 15.643 9.12916 15.5473 9.06091 15.5004L8.18465 14.8983C8.1516 14.8758 8.11118 14.8675 8.07217 14.8753C8.03317 14.883 7.99873 14.9061 7.97635 14.9395L6.25075 17.5456C4.99441 19.443 5.48494 22.0137 7.34717 23.2916C9.20941 24.5695 11.7333 24.0717 12.9878 22.1747L14.7134 19.5686C14.7594 19.4991 14.7412 19.4033 14.6729 19.3564L13.8011 18.7574ZM16.8695 8.91283C15.0069 7.63303 12.4834 8.13272 11.2289 10.0297L9.50148 12.6362C9.47942 12.6699 9.4713 12.711 9.47888 12.7508C9.48646 12.7905 9.50914 12.8256 9.54197 12.8484L10.416 13.449C10.4843 13.4959 10.5783 13.4772 10.6243 13.4077L12.3499 10.8016C13.1489 9.595 14.8022 9.15655 16.1103 10.057C17.4203 10.9571 17.6402 12.6811 16.8413 13.8877L15.1157 16.4938C15.0936 16.5274 15.0855 16.5686 15.0931 16.6083C15.1007 16.6481 15.1233 16.6832 15.1562 16.706L16.0324 17.308C16.1007 17.3549 16.1947 17.3363 16.2407 17.2668L17.9663 14.6607C19.2208 12.7637 18.7303 10.193 16.8695 8.91283ZM13.4163 13.1218C13.3832 13.0994 13.3428 13.0911 13.3038 13.0988C13.2648 13.1066 13.2304 13.1296 13.208 13.1631L9.84405 18.2411C9.82199 18.2748 9.81387 18.3159 9.82145 18.3557C9.82903 18.3954 9.8517 18.4305 9.88453 18.4533L10.7564 19.0523C10.8246 19.0992 10.9186 19.0806 10.9647 19.0111L14.3268 13.9335C14.3728 13.8639 14.3546 13.7682 14.2863 13.7213L13.4163 13.1218Z" fill="white"/>
<path d="M0.674805 23.1999V0H2.0569V23.1999H0.674805Z" fill="white"/>
<path d="M32.4797 23.1999V14.0791C32.4797 10.3144 31.1477 8.43214 28.4837 8.43214C27.0014 8.43214 25.7846 8.98816 24.8331 10.1002C23.8817 11.202 23.406 12.5691 23.406 14.2015V23.1999H22.0239V7.52924H23.406V10.3757H23.4661C24.5878 8.22299 26.3404 7.14666 28.724 7.14666C30.3865 7.14666 31.6585 7.71288 32.5398 8.84533C33.4211 9.96757 33.8618 11.5744 33.8618 13.6659V23.1999H32.4797Z" fill="white"/>
<path d="M46.6768 23.1999L39.3157 15.4564H39.2556V23.1999H37.8735V0H39.2556V14.9514H39.3157L46.3012 7.52924H48.0889L40.7879 15.1197L48.6748 23.1999H46.6768Z" fill="white"/>
</g>
<defs>
<clipPath id="clip0_392_28">
<rect width="48" height="24" fill="white" transform="translate(0.674805)"/>
</clipPath>
</defs>
</svg>
