<svg width="90" height="24" viewBox="0 0 90 24" fill="none" xmlns="http://www.w3.org/2000/svg">
<g clip-path="url(#clip0_392_33)">
<path d="M16.627 0H0.379883V23.6022H3.96429V12.9613H15.3875V9.8453H3.96429V3.18232H16.627V0Z" fill="white"/>
<path d="M33.4051 21.0497C32.7686 21.0497 32.4671 20.7845 32.4671 20.1878V11.1381C32.4671 7.79005 30.1892 6.09945 25.6333 6.09945C20.9769 6.09945 18.5315 8.0221 18.297 11.8343H21.6134C21.6804 10.7072 22.0489 9.9116 22.6518 9.44751C23.2548 8.98342 24.2263 8.75138 25.6333 8.75138C26.9062 8.75138 27.8107 8.95028 28.3467 9.34807C28.8827 9.74586 29.1842 10.3425 29.1842 11.2044C29.1842 11.8674 28.9497 12.3646 28.5477 12.6961C28.1457 13.0276 27.4757 13.2597 26.6047 13.3591L24.0588 13.6243C19.7039 14.0884 17.56 15.8453 17.56 18.9282C17.56 20.5193 18.096 21.779 19.2014 22.674C20.3069 23.5691 21.8144 24 23.7238 24C26.3033 24 28.1792 23.105 29.3517 21.2818C29.4522 22.1436 29.7537 22.7403 30.2897 23.1381C30.8256 23.5359 31.6296 23.7017 32.7016 23.7017C33.3046 23.7017 33.8406 23.6685 34.343 23.6022V21.0497H33.4051ZM24.2263 21.4144C23.1543 21.4144 22.3504 21.2155 21.8144 20.7514C21.2784 20.2873 21.0104 19.6575 21.0104 18.8287C21.0104 18.0331 21.2784 17.4033 21.8479 16.9392C22.3839 16.4751 23.3218 16.1768 24.6283 16.011L27.0402 15.7459C28.0452 15.6464 28.7487 15.4144 29.1842 15.0497V16.8398C29.1842 18.2983 28.7152 19.4254 27.7772 20.221C26.8392 21.0166 25.6333 21.4144 24.2263 21.4144Z" fill="white"/>
<path d="M72.2869 6.09945C69.9754 6.09945 68.1665 7.09392 66.86 9.04972V6.49724H63.6441V23.6022H66.994V13.9558C66.994 12.3646 67.4295 11.1381 68.334 10.2762C69.2049 9.44751 70.2099 9.01657 71.3489 9.01657C73.7608 9.01657 75.0003 10.2099 75.0003 12.5967V23.6022H78.3502V12.1326C78.3502 10.2099 77.8142 8.75138 76.7422 7.69061C75.6703 6.62983 74.1628 6.09945 72.2869 6.09945Z" fill="white"/>
<path d="M89.7132 6.49724H86.2293V1.59116H82.8794V6.49724H80.099V9.21547H82.8794V19.7901C82.8794 21.1823 83.2479 22.1768 84.0519 22.7735C84.8223 23.4033 86.0283 23.7017 87.6698 23.7017C88.2728 23.7017 88.9762 23.6685 89.7132 23.6022V20.9503H88.2058C87.4688 20.9503 86.9663 20.8508 86.6648 20.6188C86.3633 20.3867 86.2293 20.0221 86.2293 19.4917V9.21547H89.7132V6.49724Z" fill="white"/>
</g>
<defs>
<clipPath id="clip0_392_33">
<rect width="89.3333" height="24" fill="white" transform="translate(0.379883)"/>
</clipPath>
</defs>
</svg>
