<svg width="68" height="24" viewBox="0 0 68 24" fill="none" xmlns="http://www.w3.org/2000/svg">
<g clip-path="url(#clip0_392_27)">
<path d="M5.6616 24L0.290161 6.61392H3.36428L6.15742 16.6494L7.19866 20.382C7.24273 20.1965 7.54573 19.0014 8.10767 16.7967L10.9008 6.61392H13.9584L16.5863 16.6985L17.4622 20.0218L18.4704 16.6658L21.4784 6.61392H24.3707L18.8836 24H15.793L12.9998 13.588L12.3222 10.6248L8.76877 24H5.6616Z" fill="white"/>
<path d="M26.9827 9.96999V6.61392H30.3709V9.96999H26.9827Z" fill="white"/>
<path d="M34.9497 24V6.61392H37.6271V9.08595C38.9163 7.17599 40.7784 6.22101 43.2134 6.22101C44.2712 6.22101 45.2408 6.41201 46.1222 6.794C47.0147 7.16507 47.6813 7.65621 48.1221 8.26739C48.5628 8.87858 48.8713 9.60437 49.0476 10.4447C49.1578 10.9904 49.2129 11.9454 49.2129 13.3097V24H46.2379V13.4243C46.2379 12.2237 46.1222 11.3288 45.8909 10.7394C45.6595 10.1392 45.2463 9.66439 44.6513 9.31514C44.0673 8.95498 43.3787 8.7749 42.5854 8.7749C41.3183 8.7749 40.2219 9.17326 39.2964 9.96999C38.3819 10.7667 37.9246 12.2783 37.9246 14.5048V24H34.9497Z" fill="white"/>
<path d="M53.1306 24V0H56.1055V13.6862L63.1462 6.61392H66.9971L60.287 13.0641L67.6748 24H64.0057L58.2045 15.1105L56.1055 17.1078V24H53.1306Z" fill="white"/>
<path d="M30.7834 23.8075C28.9865 19.5949 28.06 19.656 29.8569 15.5568H27.3953C26.0217 19.4725 26.0217 19.4725 27.3953 23.8075H30.7834Z" fill="white"/>
<path d="M26.9827 9.96999V6.61392H30.3709V9.96999H26.9827Z" fill="white"/>
</g>
<defs>
<clipPath id="clip0_392_27">
<rect width="67.3846" height="24" fill="white" transform="translate(0.290161)"/>
</clipPath>
</defs>
</svg>
