<svg width="127" height="24" viewBox="0 0 127 24" fill="none" xmlns="http://www.w3.org/2000/svg">
<g clip-path="url(#clip0_392_32)">
<path d="M24.8953 22.9163C22.9953 22.9163 21.4964 22.3319 20.3987 21.1631C19.3221 19.9944 18.7837 18.2516 18.7837 15.935V7.01263H22.1403V15.5906C22.1403 18.596 23.3858 20.0987 25.8769 20.0987C27.1224 20.0987 28.1463 19.6604 28.9485 18.7838C29.7507 17.9073 30.1518 16.655 30.1518 15.0271V7.01263H33.5084V22.5406H30.5318L30.2785 19.8169C29.7929 20.777 29.0752 21.5388 28.1252 22.1023C27.1963 22.645 26.1197 22.9163 24.8953 22.9163Z" fill="white"/>
<path d="M45.1248 22.9163C43.5838 22.9163 42.2116 22.5823 41.0083 21.9145C39.8261 21.2257 38.8972 20.2761 38.2217 19.0656C37.5461 17.8551 37.2083 16.4463 37.2083 14.8392C37.2083 13.2113 37.5356 11.7816 38.19 10.5503C38.8655 9.31887 39.7944 8.35881 40.9766 7.67007C42.1799 6.98133 43.5732 6.63696 45.1565 6.63696C46.6976 6.63696 48.0381 6.98133 49.1781 7.67007C50.318 8.33794 51.2047 9.23539 51.838 10.3624C52.4713 11.4894 52.788 12.7313 52.788 14.0879C52.788 14.2966 52.7774 14.5262 52.7563 14.7766C52.7563 15.0062 52.7458 15.2671 52.7246 15.5593H40.5016C40.6072 17.062 41.1033 18.2099 41.9899 19.003C42.8977 19.7752 43.9426 20.1613 45.1248 20.1613C46.0748 20.1613 46.8665 19.9526 47.4998 19.5352C48.1542 19.0969 48.6397 18.5125 48.9564 17.782H52.313C51.8908 19.243 51.0464 20.4639 49.7797 21.4449C48.5342 22.4258 46.9826 22.9163 45.1248 22.9163ZM45.1248 9.36061C44.006 9.36061 43.0138 9.69455 42.1482 10.3624C41.2827 11.0094 40.7549 11.9903 40.5649 13.3052H49.4314C49.3681 12.0947 48.9353 11.1346 48.1331 10.425C47.3309 9.71542 46.3281 9.36061 45.1248 9.36061Z" fill="white"/>
<path d="M62.5406 22.9163C60.5562 22.9163 58.9201 22.4363 57.6324 21.4762C56.3446 20.5161 55.6058 19.243 55.4158 17.6568H58.804C58.9729 18.3664 59.374 18.9821 60.0073 19.5039C60.6406 20.0048 61.4745 20.2552 62.5089 20.2552C63.5222 20.2552 64.2611 20.0465 64.7255 19.6291C65.19 19.2117 65.4222 18.7317 65.4222 18.189C65.4222 17.3959 65.095 16.8637 64.4405 16.5924C63.8072 16.3002 62.9206 16.0393 61.7806 15.8097C60.894 15.6219 60.0073 15.3714 59.1207 15.0584C58.2551 14.7453 57.5268 14.307 56.9357 13.7435C56.3657 13.1591 56.0807 12.3765 56.0807 11.3955C56.0807 10.0389 56.6085 8.91189 57.664 8.01444C58.7196 7.09612 60.1973 6.63696 62.0973 6.63696C63.8494 6.63696 65.2639 7.05437 66.3405 7.88921C67.4382 8.72405 68.0821 9.90326 68.2721 11.4268H65.0422C64.9366 10.759 64.62 10.2372 64.0922 9.86151C63.5856 9.48584 62.8995 9.298 62.0339 9.298C61.1895 9.298 60.5351 9.4754 60.0706 9.83021C59.6062 10.1641 59.374 10.6024 59.374 11.1451C59.374 11.6877 59.6907 12.1156 60.324 12.4286C60.9784 12.7417 61.8334 13.0235 62.8889 13.2739C63.9444 13.5035 64.9155 13.7748 65.8022 14.0879C66.7099 14.3801 67.4383 14.8184 67.9871 15.4027C68.536 15.9871 68.8104 16.8428 68.8104 17.9699C68.8315 19.3891 68.2721 20.5683 67.1321 21.5075C66.0133 22.4467 64.4828 22.9163 62.5406 22.9163Z" fill="white"/>
<path d="M78.4737 22.5406C76.9327 22.5406 75.7082 22.1754 74.8005 21.4449C73.8927 20.6935 73.4389 19.3682 73.4389 17.469V9.7989H70.7473V7.01263H73.4389L73.8505 3.06803H76.7954V7.01263H81.2287V9.7989H76.7954V17.469C76.7954 18.3247 76.9749 18.9195 77.3338 19.2534C77.7138 19.5665 78.3576 19.723 79.2654 19.723H81.0703V22.5406H78.4737Z" fill="white"/>
<path d="M86.5896 4.06983C85.9563 4.06983 85.4285 3.88199 85.0063 3.50632C84.6052 3.10977 84.4047 2.6193 84.4047 2.03492C84.4047 1.45053 84.6052 0.970498 85.0063 0.594821C85.4285 0.198274 85.9563 0 86.5896 0C87.2229 0 87.7401 0.198274 88.1412 0.594821C88.5635 0.970498 88.7746 1.45053 88.7746 2.03492C88.7746 2.6193 88.5635 3.10977 88.1412 3.50632C87.7401 3.88199 87.2229 4.06983 86.5896 4.06983ZM84.9113 22.5406V7.01263H88.2679V22.5406H84.9113Z" fill="white"/>
<path d="M100.045 22.9163C98.5466 22.9163 97.1955 22.5823 95.9922 21.9145C94.81 21.2257 93.8705 20.2761 93.1739 19.0656C92.4772 17.8342 92.1289 16.4046 92.1289 14.7766C92.1289 13.1487 92.4772 11.7295 93.1739 10.5189C93.8917 9.28756 94.8522 8.33794 96.0555 7.67007C97.2588 6.98133 98.5993 6.63696 100.077 6.63696C101.576 6.63696 102.916 6.98133 104.099 7.67007C105.302 8.33794 106.252 9.28756 106.949 10.5189C107.666 11.7295 108.025 13.1487 108.025 14.7766C108.025 16.4046 107.666 17.8342 106.949 19.0656C106.252 20.2761 105.302 21.2257 104.099 21.9145C102.895 22.5823 101.544 22.9163 100.045 22.9163ZM100.045 20.0674C100.848 20.0674 101.586 19.8691 102.262 19.4726C102.959 19.076 103.518 18.4916 103.94 17.7194C104.363 16.9263 104.574 15.9454 104.574 14.7766C104.574 13.6078 104.363 12.6373 103.94 11.8651C103.539 11.072 102.99 10.4772 102.294 10.0807C101.618 9.68411 100.879 9.48584 100.077 9.48584C99.2749 9.48584 98.5254 9.68411 97.8288 10.0807C97.1533 10.4772 96.6044 11.072 96.1822 11.8651C95.76 12.6373 95.5488 13.6078 95.5488 14.7766C95.5488 15.9454 95.76 16.9263 96.1822 17.7194C96.6044 18.4916 97.1533 19.076 97.8288 19.4726C98.5043 19.8691 99.2432 20.0674 100.045 20.0674Z" fill="white"/>
<path d="M111.655 22.5406V7.01263H114.632L114.885 9.73629C115.371 8.77623 116.078 8.02487 117.007 7.48223C117.957 6.91871 119.044 6.63696 120.268 6.63696C122.168 6.63696 123.657 7.22134 124.733 8.39011C125.831 9.55889 126.38 11.3016 126.38 13.6183V22.5406H123.055V13.9627C123.055 10.9572 121.809 9.45453 119.318 9.45453C118.073 9.45453 117.038 9.89282 116.215 10.7694C115.413 11.646 115.012 12.8982 115.012 14.5262V22.5406H111.655Z" fill="white"/>
<path d="M11.3053 17.3317L11.4319 12.2288H10.2286C9.08866 12.2288 8.04369 12.1244 7.09371 11.9157C6.12262 11.707 5.35208 11.3 4.7821 10.6948C4.191 10.0895 3.89545 9.19207 3.89545 8.00243C3.89545 6.85453 4.25433 5.95708 4.97209 5.31008C5.68985 4.64221 6.62928 4.30828 7.79036 4.30828C8.99366 4.30828 9.94364 4.63178 10.6403 5.27877C11.3369 5.92577 11.6853 6.80235 11.6853 7.90851H14.8519C14.873 6.65626 14.5985 5.5501 14.0285 4.59003C13.4374 3.62997 12.6141 2.87862 11.5586 2.33597C10.482 1.79333 9.22588 1.52201 7.79036 1.52201C6.39706 1.52201 5.16209 1.78289 4.08545 2.30467C3.00881 2.82644 2.17494 3.57779 1.58384 4.55873C0.971631 5.51879 0.665527 6.67713 0.665527 8.03374C0.665527 9.51557 0.992742 10.7365 1.64717 11.6966C2.3016 12.6358 3.1988 13.335 4.33877 13.7941C5.47875 14.2324 6.7876 14.4515 8.26535 14.4515L8.36035 17.3317H11.3053ZM9.81698 24C10.4714 24 10.9992 23.8017 11.4003 23.4052C11.8014 22.9878 12.0019 22.4973 12.0019 21.9338C12.0019 21.3494 11.8014 20.8589 11.4003 20.4624C10.9992 20.045 10.4714 19.8362 9.81698 19.8362C9.20477 19.8362 8.69811 20.045 8.29701 20.4624C7.8748 20.8589 7.6637 21.3494 7.6637 21.9338C7.6637 22.4973 7.8748 22.9878 8.29701 23.4052C8.69811 23.8017 9.20477 24 9.81698 24Z" fill="white"/>
</g>
<defs>
<clipPath id="clip0_392_32">
<rect width="125.714" height="24" fill="white" transform="translate(0.665527)"/>
</clipPath>
</defs>
</svg>
