<svg width="152" height="20" viewBox="0 0 152 20" fill="none" xmlns="http://www.w3.org/2000/svg">
<g clip-path="url(#clip0_392_26)">
<path fill-rule="evenodd" clip-rule="evenodd" d="M18.5881 0H18.6654C19.0519 0 19.2837 0.313646 19.2837 0.705695V18.8969C19.2837 19.2106 19.0519 19.5242 18.6654 19.5242C18.3562 19.5242 18.0471 19.2891 18.0471 18.8969V0.62728C18.0471 0.313646 18.279 0 18.5881 0ZM1.66301 0.940926H13.3329C13.7193 0.940926 13.9511 1.33298 13.9511 1.64662C13.9511 1.96027 13.7193 2.2739 13.3329 2.2739H2.28129V9.87967H12.2509C12.56 9.87967 12.8692 10.1149 12.8692 10.507C12.8692 10.8206 12.6372 11.1343 12.2509 11.1343H2.35854V18.9754C2.2813 19.3674 1.9721 19.6811 1.58566 19.6811C1.19922 19.6811 0.890137 19.3674 0.890137 18.9754V1.64662H0.967379C0.967379 1.25457 1.27657 0.940926 1.66301 0.940926ZM35.5132 6.58643C35.5132 6.19441 35.2041 5.95918 34.8949 5.95918C34.5086 5.95918 34.2767 6.27286 34.2767 6.58643V14.1923C34.2767 16.7798 32.1901 18.8185 29.6397 18.7401C26.9348 18.7401 25.3891 16.9366 25.3891 14.1138V6.58643C25.3891 6.19441 25.0799 5.95918 24.7709 5.95918C24.4617 5.95918 24.1526 6.27286 24.1526 6.58643V14.3491C24.1526 17.564 26.1619 19.9163 29.4851 19.9163C31.4945 19.9946 33.4265 18.8969 34.354 17.0935V19.0538C34.354 19.4458 34.6631 19.6811 34.9723 19.6811C35.3587 19.6811 35.5906 19.3674 35.5906 19.0538H35.5132V6.58643ZM47.2604 6.66488C47.2604 6.97856 46.9512 7.21379 46.6421 7.21379H42.3915V15.9174C42.3915 17.8775 43.4735 18.5832 45.0964 18.5832C45.6374 18.5832 46.1785 18.5049 46.6421 18.348C46.9512 18.348 47.1831 18.5832 47.1831 18.8969C47.1831 19.1322 47.0286 19.3674 46.7966 19.4458C46.1785 19.6811 45.4828 19.7594 44.8645 19.7594C42.8552 19.7594 41.155 18.5832 41.155 16.0741V7.21379H39.6866C39.3775 7.21379 39.0683 6.90011 39.0683 6.58643C39.0683 6.27286 39.3775 6.03763 39.6866 6.03763H41.155V2.2739C41.155 1.96027 41.3868 1.64662 41.6959 1.64662H41.7733C42.0823 1.64662 42.3915 1.96027 42.3915 2.2739V6.03763H46.6421C46.9512 6.03763 47.2604 6.3512 47.2604 6.66488ZM57.1527 7.21379C57.4619 7.21379 57.7709 6.97856 57.7709 6.66488C57.7709 6.3512 57.4619 6.03763 57.1527 6.03763H52.9021V2.2739C52.9021 1.96027 52.593 1.64662 52.2838 1.64662H52.2065C51.8975 1.64662 51.6655 1.96027 51.6655 2.2739V6.03763H50.1971C49.888 6.03763 49.5789 6.27286 49.5789 6.58643C49.5789 6.90011 49.888 7.21379 50.1971 7.21379H51.6655V16.0741C51.6655 18.5832 53.3657 19.7594 55.3752 19.7594C55.9935 19.7594 56.689 19.6811 57.3073 19.4458C57.5391 19.3674 57.6937 19.1322 57.6937 18.8969C57.6937 18.5832 57.4619 18.348 57.1527 18.348C56.689 18.5049 56.1481 18.5832 55.607 18.5832C53.984 18.5832 52.9021 17.8775 52.9021 15.9174V7.21379H57.1527ZM60.0895 12.7809C60.0895 8.78196 62.7944 5.6455 66.4267 5.6455C70.2132 5.6455 72.6099 8.78196 72.6099 12.7809C72.6099 13.0946 72.3002 13.4081 71.9917 13.4081H61.4806C61.7125 16.7798 64.1082 18.7401 66.7358 18.7401C68.3587 18.7401 69.9818 18.0344 71.0639 16.8583C71.141 16.7798 71.2953 16.7014 71.4507 16.7014C71.7592 16.7014 72.0688 17.0151 72.0688 17.3288C72.0688 17.4855 71.9917 17.6423 71.8363 17.7992C70.5229 19.2889 68.5912 20.0731 66.6586 19.9946C63.1035 19.9946 60.0895 17.1719 60.0895 12.8593V12.7809ZM61.4033 12.1537C61.6351 9.17398 63.7218 6.90011 66.3495 6.90011C69.3636 6.90011 70.9868 9.40921 71.141 12.1537H61.4033ZM77.6323 9.95812C78.483 7.68425 80.57 6.03763 82.9656 5.88073C83.3524 5.88073 83.6609 6.19441 83.6609 6.66488C83.6609 6.97856 83.4295 7.37057 83.0427 7.37057H82.9656C80.1061 7.68425 77.6323 9.80134 77.6323 14.1923V19.2106C77.5552 19.6026 77.3238 19.8379 76.937 19.8379C76.6285 19.8379 76.3189 19.5242 76.3189 19.2106V6.66488C76.396 6.27286 76.6285 6.03763 77.0142 6.03763C77.3238 6.03763 77.6323 6.3512 77.6323 6.66488V9.95812ZM104.064 5.17504C103.137 5.17504 102.363 5.8024 102.132 6.74333L99.8908 14.0355L97.6496 6.74333C97.417 5.8024 96.5675 5.09671 95.5625 5.09671H95.3312C94.3262 5.09671 93.4755 5.72395 93.2441 6.74333L91.0029 13.9571L88.8387 6.66488C88.6073 5.8024 87.8338 5.09671 86.9071 5.09671H86.83C85.825 5.09671 85.0526 5.95918 85.0526 6.97856C85.0526 7.29212 85.1297 7.6058 85.2069 7.91937V7.91949L88.6845 18.0344C88.9158 19.0538 89.7665 19.7595 90.8486 19.8379H91.0029C92.0078 19.8379 92.8573 19.1322 93.167 18.1128L95.4083 10.899L97.6496 18.1128C97.8809 19.1322 98.8088 19.8379 99.8137 19.8379H99.968C101.05 19.8379 101.977 19.1322 102.209 18.0344L105.687 7.84104C105.764 7.6058 105.841 7.29212 105.841 7.05689V6.97856C105.841 5.95918 105.069 5.17504 104.064 5.17504ZM109.474 5.88073C110.942 5.41027 112.411 5.09671 113.957 5.17504C116.12 5.17504 117.666 5.8024 118.825 6.82166C119.907 8.07627 120.448 9.72289 120.371 11.3695V17.7992C120.371 18.8969 119.52 19.7594 118.439 19.7594C117.434 19.7594 116.584 19.0537 116.506 18.0344C115.424 19.2106 113.878 19.9163 112.256 19.8379C109.706 19.8379 107.464 18.2697 107.464 15.4469C107.464 12.3104 109.783 10.8207 113.106 10.8207C114.265 10.8207 115.424 10.9775 116.506 11.3695V11.1343C116.506 9.40921 115.502 8.54673 113.493 8.54673C112.565 8.54673 111.638 8.62518 110.71 8.93874C110.556 9.01719 110.324 9.01719 110.169 9.01719C109.242 9.09564 108.469 8.38995 108.469 7.44902C108.469 6.74333 108.856 6.11596 109.474 5.88073ZM116.584 14.506C116.584 16.0741 115.27 17.0151 113.416 16.9366C112.178 16.9366 111.251 16.3094 111.251 15.2117V15.1332C111.251 13.9571 112.334 13.1729 114.034 13.1729C114.883 13.1729 115.811 13.4081 116.584 13.7218V14.506ZM132.273 6.5081C132.504 5.6455 133.277 5.09671 134.127 5.09671C135.209 5.09671 136.06 5.95918 136.06 6.97856V7.05689C136.06 7.37057 135.982 7.68425 135.827 7.99782L131.654 18.1128C131.268 19.1322 130.341 19.7595 129.336 19.8379H129.103C128.021 19.7595 127.172 19.0538 126.862 18.0344L122.535 7.91949C122.38 7.6058 122.302 7.29212 122.302 6.97856C122.38 5.88073 123.23 5.09671 124.235 5.09671C125.162 5.09671 125.935 5.72395 126.167 6.58643L129.181 14.8195L132.273 6.5081ZM137.605 13.0946C137.76 17.0151 141.083 20.0731 144.947 19.8379C146.724 19.8379 148.424 19.2889 149.816 18.1128C150.203 17.7992 150.357 17.4071 150.357 16.9366V16.8583C150.357 15.9957 149.662 15.29 148.811 15.29C148.503 15.29 148.116 15.3685 147.884 15.6037C147.034 16.2309 146.029 16.6231 145.024 16.5446C143.324 16.6231 141.856 15.4469 141.623 13.7218H149.585C150.588 13.6434 151.362 12.7809 151.285 11.7615V11.448C151.285 7.91949 148.27 4.93981 144.561 5.01826C140.464 5.01826 137.605 8.38995 137.605 12.4672V13.0946ZM144.561 8.3115C142.938 8.3115 141.856 9.48766 141.546 11.3695H147.498C147.265 9.56611 146.184 8.3115 144.561 8.3115Z" fill="white"/>
</g>
<defs>
<clipPath id="clip0_392_26">
<rect width="150.4" height="20" fill="white" transform="translate(0.890137)"/>
</clipPath>
</defs>
</svg>
