<svg width="54" height="24" viewBox="0 0 54 24" fill="none" xmlns="http://www.w3.org/2000/svg">
<g clip-path="url(#clip0_392_31)">
<path d="M0.246094 12.1661L3.02361 11.7231C3.17965 12.8517 3.61136 13.7165 4.31874 14.3177C5.03652 14.9189 6.03518 15.2195 7.3147 15.2195C8.60463 15.2195 9.56168 14.9558 10.1858 14.4285C10.81 13.8906 11.1221 13.263 11.1221 12.5458C11.1221 11.9024 10.8464 11.3962 10.2951 11.027C9.91017 10.7739 8.95313 10.4522 7.42393 10.062C5.36421 9.53461 3.93384 9.08108 3.13283 8.70138C2.34223 8.31114 1.73888 7.77851 1.32277 7.10349C0.917066 6.41793 0.714214 5.66381 0.714214 4.84113C0.714214 4.09229 0.880656 3.40145 1.21354 2.76862C1.55683 2.12525 2.01975 1.59262 2.6023 1.17073C3.03921 0.843771 3.63216 0.569545 4.38115 0.348055C5.14055 0.116018 5.95196 0 6.81538 0C8.11571 0 9.2548 0.189848 10.2327 0.569545C11.2209 0.949242 11.9491 1.46605 12.4172 2.11997C12.8853 2.76335 13.2078 3.62821 13.3847 4.71457L10.6384 5.09426C10.5135 4.2294 10.1494 3.55438 9.54608 3.06922C8.95312 2.58405 8.11051 2.34146 7.01823 2.34146C5.7283 2.34146 4.80766 2.55768 4.25632 2.99011C3.70498 3.42254 3.42931 3.92881 3.42931 4.5089C3.42931 4.87805 3.54374 5.21028 3.7726 5.5056C4.00146 5.81147 4.36035 6.0646 4.84927 6.265C5.13015 6.37047 5.95716 6.61305 7.33031 6.99275C9.31722 7.53065 10.7008 7.97363 11.481 8.32169C12.2716 8.6592 12.8905 9.15491 13.3378 9.80883C13.7852 10.4628 14.0088 11.2749 14.0088 12.2452C14.0088 13.1945 13.7331 14.091 13.1818 14.9347C12.6409 15.768 11.8555 16.4166 10.8256 16.8807C9.79574 17.3342 8.63064 17.561 7.33031 17.561C5.17696 17.561 3.53334 17.1074 2.39945 16.2004C1.27596 15.2933 0.558174 13.9486 0.246094 12.1661Z" fill="white"/>
<path d="M13.5482 23.6519L13.2361 20.9782C13.8499 21.147 14.3856 21.2314 14.8433 21.2314C15.4675 21.2314 15.9668 21.1259 16.3413 20.915C16.7158 20.704 17.0227 20.4087 17.2619 20.029C17.4388 19.7442 17.7249 19.0376 18.1202 17.909C18.1722 17.7508 18.2554 17.5188 18.3698 17.2129L12.0814 0.379697H15.1086L18.5571 10.1094C19.0044 11.3434 19.4049 12.6407 19.7586 14.0013C20.0811 12.6935 20.466 11.4173 20.9133 10.1727L24.4554 0.379697H27.2641L20.9601 17.4661C20.2839 19.3118 19.7586 20.5827 19.3841 21.2788C18.8848 22.2175 18.3126 22.9031 17.6676 23.3355C17.0227 23.7785 16.2529 24 15.3583 24C14.8173 24 14.214 23.884 13.5482 23.6519Z" fill="white"/>
<path d="M25.9765 17.1813V0.379697H28.5043V2.76862C29.7214 0.922874 31.4795 0 33.7785 0C34.7771 0 35.6926 0.184575 36.5248 0.553724C37.3674 0.912327 37.9967 1.38695 38.4128 1.97759C38.829 2.56823 39.1202 3.26961 39.2867 4.08174C39.3907 4.6091 39.4427 5.53197 39.4427 6.85036V17.1813H36.634V6.96111C36.634 5.80092 36.5248 4.93606 36.3063 4.36651C36.0879 3.78642 35.6978 3.32762 35.136 2.99011C34.5847 2.64206 33.9345 2.46803 33.1855 2.46803C31.9892 2.46803 30.9541 2.853 30.0803 3.62294C29.2169 4.39288 28.7852 5.85366 28.7852 8.00527V17.1813H25.9765Z" fill="white"/>
<path d="M50.9035 11.027L53.6654 11.3909C53.3638 13.321 52.5888 14.8345 51.3405 15.9314C50.1025 17.0178 48.5785 17.561 46.7685 17.561C44.5007 17.561 42.675 16.8121 41.2915 15.3144C39.9183 13.8062 39.2317 11.6493 39.2317 8.84377C39.2317 7.02966 39.5282 5.44232 40.1212 4.08174C40.7141 2.72116 41.614 1.70336 42.8207 1.02835C44.0378 0.342782 45.3589 0 46.7841 0C48.5837 0 50.0557 0.464074 51.2 1.39222C52.3443 2.30982 53.0777 3.61767 53.4002 5.31575L50.6695 5.74291C50.4094 4.61437 49.9465 3.76533 49.2807 3.19578C48.6254 2.62624 47.8295 2.34146 46.8933 2.34146C45.4785 2.34146 44.3291 2.85827 43.4448 3.89189C42.5606 4.91496 42.1185 6.53922 42.1185 8.76467C42.1185 11.0218 42.545 12.6618 43.398 13.6849C44.251 14.708 45.3641 15.2195 46.7373 15.2195C47.84 15.2195 48.7606 14.8767 49.4992 14.1912C50.2378 13.5056 50.7059 12.4509 50.9035 11.027Z" fill="white"/>
</g>
<defs>
<clipPath id="clip0_392_31">
<rect width="53.4194" height="24" fill="white" transform="translate(0.246094)"/>
</clipPath>
</defs>
</svg>
