<svg width="133" height="24" viewBox="0 0 133 24" fill="none" xmlns="http://www.w3.org/2000/svg">
<g clip-path="url(#clip0_392_24)">
<path d="M41.1759 23.9606C40.1873 23.9606 39.295 23.7638 38.4989 23.3701C37.7029 22.9764 37.016 22.4449 36.4382 21.7756C35.8605 21.0931 35.4111 20.332 35.0901 19.4921C34.7819 18.639 34.6279 17.7663 34.6279 16.8739C34.6279 15.9422 34.7948 15.0563 35.1286 14.2164C35.4624 13.3634 35.9246 12.6088 36.5153 11.9526C37.1059 11.2833 37.7992 10.7584 38.5952 10.3778C39.4041 9.9841 40.2772 9.78724 41.2145 9.78724C42.1902 9.78724 43.0762 9.99066 43.8722 10.3975C44.6811 10.8043 45.368 11.3489 45.9329 12.0314C46.5107 12.7138 46.9536 13.4749 47.2618 14.3149C47.5828 15.1548 47.7433 16.0143 47.7433 16.8936C47.7433 17.8254 47.5764 18.7178 47.2425 19.5708C46.9215 20.4107 46.4658 21.1653 45.8751 21.8346C45.2845 22.4908 44.5848 23.0092 43.7759 23.3898C42.9799 23.7703 42.1132 23.9606 41.1759 23.9606ZM36.8234 16.8739C36.8234 17.5301 36.9261 18.1666 37.1315 18.7834C37.337 19.4002 37.6259 19.9514 37.9982 20.437C38.3834 20.9094 38.8456 21.2834 39.3849 21.559C39.9241 21.8346 40.5276 21.9724 41.1952 21.9724C41.8885 21.9724 42.5048 21.8281 43.0441 21.5393C43.5833 21.2506 44.0327 20.8635 44.3922 20.3779C44.7645 19.8792 45.047 19.328 45.2396 18.7244C45.4322 18.1075 45.5285 17.4907 45.5285 16.8739C45.5285 16.2178 45.4258 15.5878 45.2203 14.9842C45.0277 14.3673 44.7389 13.8227 44.3537 13.3503C43.9685 12.8647 43.5063 12.4841 42.967 12.2085C42.4406 11.9329 41.85 11.7951 41.1952 11.7951C40.5019 11.7951 39.8856 11.9395 39.3463 12.2282C38.8071 12.5169 38.3513 12.9041 37.9789 13.3896C37.6066 13.8752 37.3177 14.4198 37.1123 15.0235C36.9197 15.6272 36.8234 16.244 36.8234 16.8739Z" fill="white"/>
<path d="M55.6771 23.9606C54.5857 23.9606 53.6613 23.7703 52.9038 23.3898C52.1591 23.0092 51.5556 22.4908 51.0934 21.8346C50.644 21.1784 50.3102 20.4304 50.092 19.5905C49.8865 18.7506 49.7838 17.8779 49.7838 16.9724V9.88567H51.9408V16.9724C51.9408 17.6154 52.005 18.2388 52.1334 18.8425C52.2618 19.433 52.4672 19.9645 52.7497 20.437C53.0322 20.9094 53.4109 21.2834 53.886 21.559C54.3739 21.8346 54.9709 21.9724 55.6771 21.9724C56.3961 21.9724 56.9931 21.8346 57.4682 21.559C57.9561 21.2703 58.3348 20.8897 58.6044 20.4173C58.8869 19.9317 59.0923 19.3936 59.2207 18.8031C59.3491 18.2125 59.4133 17.6023 59.4133 16.9724V9.88567H61.5896V16.9724C61.5896 17.9304 61.474 18.8359 61.2429 19.6889C61.0247 20.5288 60.678 21.2703 60.2029 21.9134C59.7407 22.5433 59.1373 23.042 58.3926 23.4094C57.6479 23.7769 56.7427 23.9606 55.6771 23.9606Z" fill="white"/>
<path d="M66.6153 13.9802V23.8622H64.4583V9.88567H66.2301L73.9722 19.9842V9.90536H76.1485V23.8622H74.2611L66.6153 13.9802Z" fill="white"/>
<path d="M89.2562 11.8345H84.7111V23.8622H82.5348V11.8345H77.9704V9.88567H89.2562V11.8345Z" fill="white"/>
<path d="M93.7591 9.88567H95.8005L101.116 23.8622H98.8434L97.399 20.0629H92.122L90.6969 23.8622H88.4051L93.7591 9.88567ZM96.9753 18.4291L94.7798 12.307L92.5072 18.4291H96.9753Z" fill="white"/>
<path d="M102.807 23.8622V9.88567H104.964V23.8622H102.807Z" fill="white"/>
<path d="M110.211 13.9802V23.8622H108.054V9.88567H109.826L117.568 19.9842V9.90536H119.745V23.8622H117.857L110.211 13.9802Z" fill="white"/>
<path d="M130.907 13.1731C130.779 13.0288 130.593 12.8778 130.349 12.7203C130.105 12.5497 129.816 12.3923 129.482 12.2479C129.148 12.1035 128.789 11.9854 128.403 11.8936C128.018 11.8017 127.62 11.7558 127.209 11.7558C126.311 11.7558 125.643 11.9264 125.206 12.2676C124.77 12.6088 124.552 13.0812 124.552 13.6849C124.552 14.1311 124.674 14.4855 124.918 14.7479C125.162 14.9973 125.534 15.2073 126.035 15.3779C126.535 15.5485 127.164 15.7322 127.922 15.929C128.846 16.1521 129.649 16.4212 130.329 16.7361C131.01 17.038 131.53 17.4448 131.889 17.9566C132.249 18.4684 132.429 19.1443 132.429 19.9842C132.429 20.6929 132.3 21.3031 132.043 21.8149C131.787 22.3268 131.427 22.7467 130.965 23.0748C130.503 23.3898 129.97 23.626 129.366 23.7835C128.763 23.9278 128.115 24 127.421 24C126.741 24 126.06 23.9278 125.38 23.7835C124.712 23.6391 124.07 23.4291 123.454 23.1535C122.85 22.8648 122.292 22.517 121.778 22.1102L122.761 20.2204C122.927 20.391 123.165 20.5813 123.473 20.7913C123.794 20.9882 124.16 21.1784 124.571 21.3622C124.995 21.5459 125.45 21.7034 125.938 21.8346C126.439 21.9527 126.946 22.0118 127.46 22.0118C128.32 22.0118 128.975 21.8609 129.424 21.559C129.886 21.2441 130.118 20.7979 130.118 20.2204C130.118 19.748 129.97 19.374 129.675 19.0984C129.379 18.8097 128.949 18.5669 128.384 18.37C127.819 18.1732 127.145 17.9763 126.362 17.7795C125.463 17.5301 124.712 17.2611 124.109 16.9724C123.505 16.6705 123.049 16.2899 122.741 15.8306C122.446 15.3582 122.298 14.7611 122.298 14.0393C122.298 13.1206 122.517 12.3463 122.953 11.7164C123.39 11.0733 123.98 10.5943 124.725 10.2794C125.483 9.95129 126.33 9.78724 127.267 9.78724C127.883 9.78724 128.468 9.85942 129.02 10.0038C129.572 10.135 130.085 10.3187 130.56 10.555C131.048 10.7912 131.491 11.0602 131.889 11.3621L130.907 13.1731Z" fill="white"/>
<path d="M22.5362 23.4621H20.3873L17.1314 15.0757L13.8429 23.4621H11.6615L15.6988 13.3784L11.2707 2.69565L2.90308 23.6285H0.428589L10.2289 0H12.2475L17.0988 11.6812L21.9827 0H23.9688L33.7365 23.6285H31.2945L22.8943 2.69565L18.4989 13.3784L22.5362 23.4621Z" fill="white"/>
</g>
<defs>
<clipPath id="clip0_392_24">
<rect width="132" height="24" fill="white" transform="translate(0.428589)"/>
</clipPath>
</defs>
</svg>
