<svg width="57" height="24" viewBox="0 0 57 24" fill="none" xmlns="http://www.w3.org/2000/svg">
<g clip-path="url(#clip0_392_30)">
<path d="M4.44939 1.50085H2.27305V10.1544H4.01413V11.4524H2.27305V23.5673H0.531982V0.202817H4.44939V1.50085Z" fill="white"/>
<path d="M10.5431 23.5673H8.80207L8.58444 17.9425H7.29224L7.061 23.5673H5.31993L6.62573 0.202817H9.23734L10.5431 23.5673ZM7.93154 1.06817L7.49627 11.4524L7.29224 16.6445H8.58444L7.93154 1.06817Z" fill="white"/>
<path d="M17.0722 9.72169H15.3311V2.3662C15.3311 2.14986 15.3039 1.97408 15.2495 1.83887C15.2041 1.69465 15.1407 1.58648 15.059 1.51437C14.9774 1.43324 14.8822 1.37915 14.7734 1.35211C14.6737 1.31606 14.5694 1.29803 14.4606 1.29803C14.3517 1.29803 14.2429 1.31606 14.1341 1.35211C14.0344 1.37915 13.9437 1.43324 13.8621 1.51437C13.7804 1.58648 13.7124 1.69465 13.658 1.83887C13.6127 1.97408 13.59 2.14986 13.59 2.3662V21.4039C13.59 21.5121 13.5945 21.6428 13.6036 21.7961C13.6127 21.9403 13.6444 22.08 13.6988 22.2152C13.7532 22.3504 13.8394 22.4676 13.9573 22.5668C14.0752 22.6569 14.2429 22.702 14.4606 22.702C14.6782 22.702 14.8459 22.6569 14.9638 22.5668C15.0817 22.4676 15.1679 22.3504 15.2223 22.2152C15.2767 22.08 15.3084 21.9403 15.3175 21.7961C15.3266 21.6428 15.3311 21.5121 15.3311 21.4039V12.3177H17.0722V21.4039C17.0722 21.5121 17.0586 21.7104 17.0314 21.9989C17.0041 22.2783 16.9089 22.5668 16.7457 22.8642C16.5825 23.1617 16.324 23.4231 15.9704 23.6485C15.6167 23.8828 15.1135 24 14.4606 24C13.8076 24 13.3044 23.8828 12.9507 23.6485C12.5971 23.4231 12.3386 23.1617 12.1754 22.8642C12.0122 22.5668 11.917 22.2783 11.8897 21.9989C11.8625 21.7104 11.8489 21.5121 11.8489 21.4039V2.3662C11.8489 1.95155 11.926 1.59549 12.0802 1.29803C12.2343 0.991549 12.4338 0.743662 12.6787 0.554366C12.9326 0.36507 13.2137 0.225352 13.522 0.135211C13.8303 0.0450704 14.1432 0 14.4606 0C14.7961 0 15.118 0.0495775 15.4263 0.148732C15.7437 0.247887 16.0248 0.39662 16.2696 0.59493C16.5145 0.79324 16.7094 1.04113 16.8545 1.33859C16.9996 1.63606 17.0722 1.97859 17.0722 2.3662V9.72169Z" fill="white"/>
<path d="M23.6012 0.202817V1.50085H21.8601V23.5673H20.119V1.50085H18.378V0.202817H23.6012Z" fill="white"/>
<path d="M30.1302 21.4039C30.1302 21.5121 30.1166 21.7104 30.0894 21.9989C30.0622 22.2783 29.967 22.5668 29.8037 22.8642C29.6405 23.1617 29.3821 23.4231 29.0284 23.6485C28.6748 23.8828 28.1715 24 27.5186 24C26.8657 24 26.3624 23.8828 26.0088 23.6485C25.6551 23.4231 25.3967 23.1617 25.2334 22.8642C25.0702 22.5668 24.975 22.2783 24.9478 21.9989C24.9206 21.7104 24.907 21.5121 24.907 21.4039V2.3662C24.907 2.29408 24.9115 2.18592 24.9206 2.04169C24.9297 1.89746 24.9569 1.73972 25.0022 1.56845C25.0475 1.38817 25.1246 1.20789 25.2334 1.02761C25.3423 0.83831 25.4919 0.667042 25.6823 0.513803C25.8727 0.360563 26.1176 0.238873 26.4168 0.148732C26.7161 0.0495775 27.0833 0 27.5186 0C27.9539 0 28.3211 0.0495775 28.6204 0.148732C28.9196 0.238873 29.1644 0.360563 29.3549 0.513803C29.5453 0.667042 29.6949 0.83831 29.8037 1.02761C29.9126 1.20789 29.9896 1.38817 30.035 1.56845C30.0803 1.73972 30.1075 1.89746 30.1166 2.04169C30.1257 2.18592 30.1302 2.29408 30.1302 2.3662V21.4039ZM26.6481 21.4039C26.6481 21.5121 26.6526 21.6428 26.6617 21.7961C26.6707 21.9403 26.7025 22.08 26.7569 22.2152C26.8113 22.3504 26.8974 22.4676 27.0153 22.5668C27.1332 22.6569 27.301 22.702 27.5186 22.702C27.7362 22.702 27.904 22.6569 28.0219 22.5668C28.1398 22.4676 28.2259 22.3504 28.2803 22.2152C28.3347 22.08 28.3665 21.9403 28.3755 21.7961C28.3846 21.6428 28.3891 21.5121 28.3891 21.4039V2.3662C28.3891 2.25803 28.3846 2.14085 28.3755 2.01465C28.3665 1.88845 28.3347 1.77577 28.2803 1.67662C28.2259 1.56845 28.1398 1.47831 28.0219 1.4062C27.904 1.33408 27.7362 1.29803 27.5186 1.29803C27.301 1.29803 27.1332 1.33408 27.0153 1.4062C26.8974 1.47831 26.8113 1.56845 26.7569 1.67662C26.7025 1.77577 26.6707 1.88845 26.6617 2.01465C26.6526 2.14085 26.6481 2.25803 26.6481 2.3662V21.4039Z" fill="white"/>
<path d="M37.0945 9.72169C37.0945 10.3707 36.9857 10.8214 36.768 11.0738C36.5504 11.3262 36.2239 11.4524 35.7887 11.4524C36.0063 11.4524 36.1967 11.502 36.36 11.6011C36.5232 11.7003 36.6592 11.831 36.768 11.9932C36.8768 12.1555 36.9585 12.3403 37.0129 12.5476C37.0673 12.7549 37.0945 12.9668 37.0945 13.1831V23.5673H35.3534V12.7504C35.3534 12.5341 35.3035 12.3673 35.2038 12.2501C35.104 12.133 34.9725 12.0473 34.8093 11.9932C34.6461 11.9392 34.4602 11.9076 34.2516 11.8986C34.0431 11.8896 33.83 11.8851 33.6123 11.8851V23.5673H31.8713V0.202817H33.6123C34.0476 0.202817 34.4738 0.216338 34.8909 0.24338C35.3081 0.261408 35.6799 0.338028 36.0063 0.473239C36.3328 0.608451 36.5957 0.824789 36.7952 1.12225C36.9947 1.4107 37.0945 1.82535 37.0945 2.3662V9.72169ZM35.3534 2.3662C35.3534 2.14986 35.3217 1.9831 35.2582 1.86592C35.2038 1.74873 35.1086 1.6631 34.9725 1.60901C34.8365 1.55493 34.6552 1.52338 34.4285 1.51437C34.2108 1.50535 33.9388 1.50085 33.6123 1.50085V11.0197C33.83 11.0197 34.0431 11.0152 34.2516 11.0062C34.4602 10.9972 34.6461 10.9656 34.8093 10.9116C34.9725 10.8575 35.104 10.7718 35.2038 10.6546C35.3035 10.5375 35.3534 10.3707 35.3534 10.1544V2.3662Z" fill="white"/>
<path d="M40.7943 0.202817V23.5673H39.0532V0.202817H40.7943Z" fill="white"/>
<path d="M47.5409 23.5673H45.7998L45.5822 17.9425H44.29L44.0588 23.5673H42.3177L43.6235 0.202817H46.2351L47.5409 23.5673ZM44.9293 1.06817L44.494 11.4524L44.29 16.6445H45.5822L44.9293 1.06817Z" fill="white"/>
<path d="M50.5878 0.202817V22.2693H52.3289V23.5673H48.8467V0.202817H50.5878Z" fill="white"/>
<path d="M56.2463 0.202817L55.3757 20.1059H54.5052L53.6347 0.202817H56.2463ZM55.811 21.4039V23.5673H54.0699V21.4039H55.811Z" fill="white"/>
</g>
<defs>
<clipPath id="clip0_392_30">
<rect width="55.7143" height="24" fill="white" transform="translate(0.531982)"/>
</clipPath>
</defs>
</svg>
