<svg width="50" height="24" viewBox="0 0 50 24" fill="none" xmlns="http://www.w3.org/2000/svg">
<g clip-path="url(#clip0_392_29)">
<path d="M15.1592 18.9435C15.1592 19.8286 14.9521 20.6304 14.5379 21.3488C14.1237 22.0544 13.5282 22.6189 12.7516 23.0422C11.975 23.4527 11.0624 23.658 10.0139 23.658C8.93958 23.658 8.02055 23.4527 7.25686 23.0422C6.49316 22.6189 5.9042 22.0544 5.48999 21.3488C5.07578 20.6304 4.86868 19.8286 4.86868 18.9435C4.86868 17.9941 5.08873 17.1475 5.52882 16.4034C5.95598 15.6465 6.55788 15.0564 7.33452 14.6331C8.09822 14.1969 8.99136 13.9788 10.0139 13.9788C11.0236 13.9788 11.9167 14.1969 12.6934 14.6331C13.47 15.0564 14.0784 15.6465 14.5185 16.4034C14.9456 17.1475 15.1592 17.9941 15.1592 18.9435ZM15.0815 23.9851H0.674805V23.023H8.22766L9.99452 23.2154L11.7614 23.0615H15.0815V23.9851ZM14.2855 19.0012C14.2855 18.2315 14.1107 17.5387 13.7612 16.923C13.3988 16.3072 12.894 15.8261 12.2468 15.4797C11.5996 15.1205 10.8553 14.9409 10.0139 14.9409C9.15963 14.9409 8.41535 15.1205 7.78109 15.4797C7.13389 15.8261 6.63554 16.3072 6.28605 16.923C5.92362 17.5387 5.7424 18.2315 5.7424 19.0012C5.7424 19.7709 5.92362 20.4637 6.28605 21.0794C6.63554 21.6824 7.13389 22.1635 7.78109 22.5227C8.41535 22.869 9.15963 23.0422 10.0139 23.0422C10.8553 23.0422 11.5996 22.869 12.2468 22.5227C12.894 22.1635 13.3988 21.6824 13.7612 21.0794C14.1107 20.4637 14.2855 19.7709 14.2855 19.0012Z" fill="white"/>
<path d="M20.2131 11.1221C19.3276 11.6289 18.4328 11.889 17.529 11.9025C16.6363 11.9096 15.7997 11.6922 15.019 11.2501C14.2496 10.8016 13.6157 10.1496 13.1173 9.29411C12.6125 8.42753 12.3485 7.56388 12.3254 6.70313C12.307 5.82487 12.5073 5.01406 12.9262 4.2707C13.3451 3.52735 13.9525 2.92797 14.7484 2.47255C15.5443 2.01714 16.3629 1.79314 17.2042 1.80057C18.0568 1.80158 18.8566 2.03275 19.6036 2.49409C20.3554 2.9379 20.9837 3.59309 21.4885 4.45967C21.5079 4.493 21.525 4.53509 21.5396 4.58594C21.5591 4.61927 21.5817 4.65816 21.6076 4.7026L13.856 9.13809L13.4774 8.48816L20.775 4.31245L20.6231 4.82151C20.2396 4.13739 19.7411 3.61528 19.1278 3.2552C18.5192 2.87758 17.8753 2.68311 17.1961 2.67179C16.5105 2.64936 15.8369 2.82736 15.1756 3.20581C14.5254 3.57784 14.0331 4.06692 13.6986 4.67305C13.3689 5.26167 13.2169 5.91155 13.2426 6.62271C13.2618 7.32276 13.472 8.01719 13.8733 8.706L13.9607 8.85599C14.3749 9.56702 14.9007 10.1105 15.5382 10.4864C16.1804 10.8448 16.8724 11.0191 17.6141 11.0095C18.3493 10.9887 19.0757 10.7731 19.7931 10.3626C20.3536 10.0419 20.8166 9.64361 21.1821 9.16782C21.5589 8.68561 21.7956 8.14276 21.8925 7.53926L22.7005 7.81018C22.5912 8.49488 22.3162 9.12622 21.8757 9.70418C21.4399 10.2646 20.8857 10.7373 20.2131 11.1221Z" fill="white"/>
<path d="M34.9756 2.38681C35.693 2.79733 36.2343 3.2922 36.5993 3.87142C36.9821 4.44594 37.1574 5.09434 37.1252 5.81661C37.1108 6.53418 36.8673 7.29848 36.3949 8.1095L33.4339 13.1923L32.5932 12.7112L35.5153 7.69509C36.0848 6.71741 36.2662 5.82873 36.0595 5.02903C35.864 4.23574 35.3178 3.58253 34.421 3.06938C33.7372 2.67811 33.0622 2.47703 32.396 2.46613C31.7297 2.45523 31.1165 2.62279 30.5562 2.96879C30.0071 3.32121 29.5287 3.84738 29.121 4.5473L26.4221 9.18013L25.5814 8.69906L30.649 0L31.4561 0.46183L30.0484 2.87824L30.0861 2.54425C30.7564 2.00938 31.513 1.72391 32.3561 1.68785C33.2056 1.64068 34.0788 1.87367 34.9756 2.38681Z" fill="white"/>
<path d="M35.0476 18.9391C35.0476 18.0026 35.2611 17.1559 35.6883 16.399C36.1284 15.655 36.7368 15.0649 37.5134 14.6287C38.29 14.1925 39.1832 13.9744 40.1928 13.9744C41.2154 13.9744 42.1085 14.1925 42.8722 14.6287C43.6489 15.0649 44.2508 15.655 44.6779 16.399C45.118 17.1559 45.3381 18.0026 45.3381 18.9391C45.3381 19.8243 45.131 20.6197 44.7168 21.3252C44.3026 22.0436 43.7136 22.6081 42.9499 23.0186C42.1862 23.442 41.2672 23.6536 40.1928 23.6536C39.1443 23.6536 38.2318 23.4484 37.4551 23.0379C36.6785 22.6273 36.0831 22.0629 35.6689 21.3445C35.2547 20.6389 35.0476 19.8371 35.0476 18.9391ZM35.9213 18.9968C35.9213 19.7666 36.096 20.4529 36.4455 21.0558C36.8079 21.6716 37.3128 22.1527 37.96 22.499C38.6072 22.8583 39.3515 23.0379 40.1928 23.0379C41.0471 23.0379 41.7914 22.8583 42.4257 22.499C43.0729 22.1527 43.5712 21.6716 43.9207 21.0558C44.2831 20.4529 44.4644 19.7666 44.4644 18.9968C44.4644 18.2271 44.2831 17.5344 43.9207 16.9186C43.5712 16.3157 43.0729 15.8346 42.4257 15.4754C41.7914 15.129 41.0471 14.9558 40.1928 14.9558C39.3515 14.9558 38.6072 15.129 37.96 15.4754C37.3128 15.8346 36.8079 16.3157 36.4455 16.9186C36.096 17.5344 35.9213 18.2271 35.9213 18.9968ZM35.1252 23.0571H38.4454L40.2122 23.2303L41.9791 23.0379H49.5319V24H35.1252V23.0571Z" fill="white"/>
</g>
<defs>
<clipPath id="clip0_392_29">
<rect width="48.8571" height="24" fill="white" transform="translate(0.674805)"/>
</clipPath>
</defs>
</svg>
