<svg width="103" height="24" viewBox="0 0 103 24" fill="none" xmlns="http://www.w3.org/2000/svg">
<g clip-path="url(#clip0_392_25)">
<path d="M3.65625 23.6987V9.53975H0.428589V7.43096H3.65625V6.86192C3.65625 4.69735 4.1942 3.05718 5.27009 1.94142C6.36839 0.825661 8.04946 0.200836 10.3133 0.0669447L11.6246 0L11.8599 2.07531L10.3133 2.17573C8.92362 2.28731 7.91498 2.70014 7.28738 3.41423C6.68219 4.12831 6.3796 5.16597 6.3796 6.5272V7.43096H11.0866V9.53975H6.3796V23.6987H3.65625Z" fill="white"/>
<path d="M19.3281 24C18.0505 24 16.8401 23.8215 15.697 23.4644C14.5538 23.1074 13.6124 22.6053 12.8727 21.9582L13.7469 20.0502C14.5538 20.6974 15.4392 21.1771 16.403 21.4895C17.3892 21.7796 18.3867 21.9247 19.3953 21.9247C20.6729 21.9247 21.6368 21.6904 22.2868 21.2218C22.9368 20.7531 23.2618 20.1172 23.2618 19.3138C23.2618 18.689 23.0489 18.198 22.623 17.841C22.1971 17.4616 21.5247 17.1715 20.6057 16.9707L17.5461 16.3013C14.7668 15.6987 13.3771 14.2706 13.3771 12.0167C13.3771 10.5439 13.9598 9.36123 15.1254 8.46862C16.3133 7.57601 17.8599 7.12971 19.7652 7.12971C20.8859 7.12971 21.9506 7.30823 22.9592 7.66527C23.9903 8 24.842 8.50209 25.5144 9.17155L24.6067 11.0795C23.9566 10.477 23.1946 10.0195 22.3204 9.70711C21.4686 9.37238 20.6169 9.20502 19.7652 9.20502C18.51 9.20502 17.5573 9.45049 16.9073 9.94142C16.2573 10.4324 15.9323 11.0795 15.9323 11.8828C15.9323 13.1325 16.7616 13.9358 18.4203 14.2929L21.4799 14.9289C22.9144 15.2413 24.0015 15.7434 24.7411 16.4351C25.4808 17.1046 25.8506 18.0195 25.8506 19.1799C25.8506 20.675 25.2567 21.8577 24.0687 22.728C22.8807 23.576 21.3005 24 19.3281 24Z" fill="white"/>
<path d="M35.784 24C31.8615 24 29.9002 21.8466 29.9002 17.5397V7.43096H32.6235V17.5063C32.6235 18.9568 32.9149 20.0279 33.4977 20.7197C34.1029 21.4114 35.0443 21.7573 36.3219 21.7573C37.7116 21.7573 38.8435 21.2999 39.7177 20.3849C40.5918 19.4477 41.0289 18.2092 41.0289 16.6695V7.43096H43.7523V23.6987H41.0962V20.954C40.5806 21.9358 39.8522 22.6946 38.9108 23.2301C37.9918 23.7434 36.9495 24 35.784 24Z" fill="white"/>
<path d="M48.8475 23.6987V0.100417H51.5708V10.1088C52.1088 9.12692 52.8597 8.39052 53.8235 7.89958C54.8097 7.38633 55.908 7.12971 57.1184 7.12971C60.9961 7.12971 62.9349 9.27197 62.9349 13.5565V23.6987H60.2116V13.7239C60.2116 12.2064 59.909 11.1018 59.3038 10.41C58.721 9.69595 57.7796 9.33891 56.4796 9.33891C54.9778 9.33891 53.7787 9.80753 52.8821 10.7448C52.0079 11.6597 51.5708 12.887 51.5708 14.4268V23.6987H48.8475Z" fill="white"/>
<path d="M68.8307 23.6987V9.53975H65.6031V7.43096H68.8307V6.86192C68.8307 4.69735 69.3687 3.05718 70.4446 1.94142C71.5429 0.825661 73.224 0.200836 75.4878 0.0669447L76.799 0L77.0344 2.07531L75.4878 2.17573C74.0981 2.28731 73.0895 2.70014 72.4619 3.41423C71.8567 4.12831 71.5541 5.16597 71.5541 6.5272V7.43096H76.2611V9.53975H71.5541V23.6987H68.8307ZM84.1622 24C82.5035 24 81.2483 23.5202 80.3965 22.5607C79.5672 21.5788 79.1526 20.1618 79.1526 18.3096V0.100417H81.8759V18.1088C81.8759 20.4965 82.8285 21.6904 84.7337 21.6904C85.2941 21.6904 85.7984 21.6234 86.2467 21.4895L86.1794 23.7657C85.4846 23.9219 84.8122 24 84.1622 24Z" fill="white"/>
<path d="M96.3003 24C93.7227 24 91.683 23.2524 90.1812 21.7573C88.6794 20.2399 87.9286 18.1869 87.9286 15.5983C87.9286 13.9247 88.2648 12.4519 88.9372 11.1799C89.6096 9.88563 90.5286 8.89261 91.6942 8.20084C92.8821 7.48675 94.2494 7.12971 95.796 7.12971C98.015 7.12971 99.7521 7.84379 101.007 9.27197C102.263 10.6778 102.89 12.6192 102.89 15.0962V16.1339H90.5847C90.6743 17.9861 91.2123 19.4031 92.1985 20.3849C93.1847 21.3445 94.552 21.8243 96.3003 21.8243C97.2865 21.8243 98.228 21.6792 99.1245 21.3891C100.021 21.0767 100.873 20.5746 101.68 19.8828L102.621 21.7908C101.881 22.4826 100.94 23.0293 99.797 23.431C98.6538 23.8103 97.4883 24 96.3003 24ZM95.8632 9.13807C94.3166 9.13807 93.0951 9.61785 92.1985 10.5774C91.3019 11.537 90.7752 12.7978 90.6183 14.3598H100.537C100.469 12.7085 100.032 11.4254 99.2254 10.5105C98.4409 9.59554 97.3202 9.13807 95.8632 9.13807Z" fill="white"/>
</g>
<defs>
<clipPath id="clip0_392_25">
<rect width="102.462" height="24" fill="white" transform="translate(0.428589)"/>
</clipPath>
</defs>
</svg>
