<svg width="112" height="24" viewBox="0 0 112 24" fill="none" xmlns="http://www.w3.org/2000/svg">
<g clip-path="url(#clip0_392_23)">
<path d="M8.77677 23.3648C7.09886 23.3648 5.59304 22.9685 4.25931 22.1757C2.9471 21.383 1.90378 20.3117 1.12936 18.9618C0.376454 17.612 0 16.0908 0 14.3981C0 12.6841 0.354943 11.1521 1.06483 9.80231C1.77471 8.45248 2.7535 7.3919 4.00117 6.62057C5.24885 5.82782 6.67938 5.43144 8.29275 5.43144C9.6695 5.43144 10.9279 5.69926 12.0681 6.23491C13.2082 6.74913 14.1977 7.54188 15.0367 8.61317C15.2088 8.82743 15.2733 9.0524 15.2303 9.28809C15.1872 9.52377 15.0474 9.7166 14.8108 9.86658C14.6172 10.0166 14.4021 10.0808 14.1654 10.0594C13.9288 10.0166 13.7245 9.88801 13.5524 9.67375C12.1756 8.04539 10.4224 7.23121 8.29275 7.23121C7.02356 7.23121 5.90496 7.54188 4.93693 8.16323C3.99042 8.78458 3.24826 9.6309 2.71047 10.7022C2.19419 11.7735 1.93605 13.0055 1.93605 14.3981C1.93605 15.748 2.22646 16.9692 2.80727 18.062C3.38809 19.1332 4.18402 19.9903 5.19507 20.6331C6.22763 21.2544 7.42153 21.5651 8.77677 21.5651C9.65875 21.5651 10.4869 21.4365 11.2614 21.1794C12.0573 20.9223 12.7457 20.5259 13.3265 19.9903C13.5201 19.8189 13.7352 19.7225 13.9718 19.701C14.2085 19.6796 14.4128 19.7546 14.5849 19.926C14.8 20.1188 14.9076 20.3438 14.9076 20.6009C14.9291 20.8366 14.8431 21.0401 14.6495 21.2115C13.0791 22.6471 11.1215 23.3648 8.77677 23.3648Z" fill="white"/>
<path d="M29.4529 23.3648C27.732 23.3648 26.1832 22.9792 24.8064 22.2079C23.4512 21.4151 22.3756 20.3438 21.5797 18.994C20.8052 17.6227 20.418 16.0908 20.418 14.3981C20.418 12.6841 20.8052 11.1521 21.5797 9.80231C22.3756 8.43105 23.4512 7.35976 24.8064 6.58844C26.1832 5.79568 27.732 5.3993 29.4529 5.3993C31.1739 5.3993 32.712 5.79568 34.0672 6.58844C35.4224 7.35976 36.4873 8.43105 37.2617 9.80231C38.0576 11.1521 38.4556 12.6841 38.4556 14.3981L37.6489 15.6837C37.6489 17.1406 37.2832 18.4476 36.5518 19.6046C35.8419 20.7616 34.8739 21.6829 33.6477 22.3685C32.4216 23.0327 31.0233 23.3648 29.4529 23.3648ZM29.4529 21.5651C30.8082 21.5651 32.0128 21.2544 33.0669 20.6331C34.1425 19.9903 34.9814 19.1332 35.5838 18.062C36.2076 16.9692 36.5195 15.748 36.5195 14.3981C36.5195 13.0269 36.2076 11.8056 35.5838 10.7343C34.9814 9.64161 34.1425 8.78458 33.0669 8.16323C32.0128 7.52046 30.8082 7.19907 29.4529 7.19907C28.1192 7.19907 26.9146 7.52046 25.839 8.16323C24.7634 8.78458 23.9137 9.64161 23.2898 10.7343C22.666 11.8056 22.3541 13.0269 22.3541 14.3981C22.3541 15.748 22.666 16.9692 23.2898 18.062C23.9137 19.1332 24.7634 19.9903 25.839 20.6331C26.9146 21.2544 28.1192 21.5651 29.4529 21.5651ZM37.4876 23.172C37.2079 23.172 36.9713 23.0863 36.7777 22.9149C36.6056 22.7221 36.5195 22.4864 36.5195 22.2079V16.3265L37.1326 14.3981H38.4556V22.2079C38.4556 22.4864 38.3695 22.7221 38.1974 22.9149C38.0253 23.0863 37.7887 23.172 37.4876 23.172Z" fill="white"/>
<path d="M45.2224 12.4377C45.3515 11.0664 45.728 9.85587 46.3518 8.80601C46.9756 7.73472 47.7823 6.89911 48.7719 6.29919C49.7614 5.69926 50.8585 5.3993 52.0631 5.3993C52.8806 5.3993 53.5152 5.49572 53.9669 5.68855C54.4187 5.88138 54.5908 6.2242 54.4832 6.71699C54.4187 7.03838 54.2681 7.23121 54.0315 7.29549C53.7948 7.35976 53.5044 7.37048 53.1602 7.32763C52.8376 7.26335 52.4719 7.23121 52.0631 7.23121C50.9876 7.23121 50.0303 7.45618 49.1913 7.90612C48.3524 8.35606 47.6963 8.97741 47.223 9.77017C46.7498 10.5415 46.5131 11.4307 46.5131 12.4377H45.2224ZM45.5451 23.172C45.2655 23.172 45.0288 23.0863 44.8352 22.9149C44.6631 22.7221 44.5771 22.4864 44.5771 22.2079V6.5563C44.5771 6.25634 44.6631 6.02065 44.8352 5.84924C45.0288 5.67784 45.2655 5.59213 45.5451 5.59213C45.8463 5.59213 46.0829 5.67784 46.255 5.84924C46.4271 6.02065 46.5131 6.25634 46.5131 6.5563V22.2079C46.5131 22.4864 46.4271 22.7221 46.255 22.9149C46.0829 23.0863 45.8463 23.172 45.5451 23.172Z" fill="white"/>
<path d="M89.3132 23.3327C87.6138 23.3327 86.0972 22.9578 84.7635 22.2079C83.4513 21.4365 82.4187 20.3759 81.6658 19.0261C80.9129 17.6763 80.5365 16.1336 80.5365 14.3981C80.5365 12.6412 80.8914 11.0986 81.6013 9.77017C82.3112 8.42034 83.29 7.35976 84.5376 6.58844C85.7853 5.81711 87.2158 5.43144 88.8292 5.43144C90.4211 5.43144 91.8301 5.80639 93.0563 6.5563C94.2824 7.28477 95.2397 8.3025 95.9281 9.60947C96.6165 10.895 96.9606 12.3841 96.9606 14.0768C96.9606 14.3553 96.8746 14.5803 96.7025 14.7517C96.5304 14.9016 96.3045 14.9766 96.0249 14.9766H81.8272V13.3054H96.5412L95.1214 14.366C95.1644 12.9733 94.9278 11.7413 94.4115 10.6701C93.8952 9.59876 93.1531 8.76316 92.185 8.16323C91.2385 7.54188 90.1199 7.23121 88.8292 7.23121C87.6031 7.23121 86.506 7.54188 85.5379 8.16323C84.5914 8.76316 83.8385 9.59876 83.2792 10.6701C82.7414 11.7413 82.4725 12.984 82.4725 14.3981C82.4725 15.7908 82.7629 17.0228 83.3437 18.0941C83.9246 19.1654 84.7312 20.0117 85.7638 20.6331C86.7964 21.233 87.9795 21.5329 89.3132 21.5329C90.1522 21.5329 90.9911 21.3937 91.8301 21.1151C92.6906 20.8152 93.3682 20.4295 93.863 19.9581C94.0351 19.7867 94.2394 19.701 94.476 19.701C94.7342 19.6796 94.9493 19.7439 95.1214 19.8939C95.358 20.0867 95.4763 20.301 95.4763 20.5366C95.4978 20.7723 95.401 20.9866 95.1859 21.1794C94.4976 21.8008 93.5941 22.315 92.4754 22.7221C91.3784 23.1292 90.3243 23.3327 89.3132 23.3327Z" fill="white"/>
<path d="M109.686 23.172C108.503 23.1506 107.449 22.8828 106.524 22.3685C105.599 21.8329 104.878 21.1044 104.362 20.1831C103.846 19.2404 103.588 18.1798 103.588 17.0014V0.996299C103.588 0.696337 103.674 0.460654 103.846 0.289249C104.039 0.0964162 104.276 0 104.556 0C104.857 0 105.093 0.0964162 105.265 0.289249C105.459 0.460654 105.556 0.696337 105.556 0.996299V17.0014C105.556 18.2441 105.943 19.2618 106.718 20.0546C107.492 20.8259 108.492 21.2115 109.718 21.2115H110.428C110.729 21.2115 110.966 21.308 111.138 21.5008C111.332 21.6722 111.429 21.9079 111.429 22.2079C111.429 22.4864 111.332 22.7221 111.138 22.9149C110.966 23.0863 110.729 23.172 110.428 23.172H109.686ZM101.071 7.9704C100.813 7.9704 100.597 7.89541 100.425 7.74543C100.275 7.57402 100.199 7.35976 100.199 7.10266C100.199 6.84555 100.275 6.642 100.425 6.49202C100.597 6.32061 100.813 6.23491 101.071 6.23491H109.815C110.073 6.23491 110.278 6.32061 110.428 6.49202C110.6 6.642 110.686 6.84555 110.686 7.10266C110.686 7.35976 110.6 7.57402 110.428 7.74543C110.278 7.89541 110.073 7.9704 109.815 7.9704H101.071Z" fill="white"/>
<path d="M80.1515 23.0546C80.1515 23.3277 80.0566 23.5588 79.8668 23.7479C79.6981 23.916 79.4766 24 79.2024 24H63.9211C62.2548 23.958 60.7784 23.5588 59.4918 22.8025C58.1841 22.0253 57.1505 20.9749 56.3912 19.6513C55.6319 18.3278 55.2522 16.8468 55.2522 15.2082C55.2522 13.5275 55.6424 12.0255 56.4229 10.702C57.1822 9.35745 58.2368 8.30705 59.5867 7.55076C60.9155 6.77347 62.4236 6.38482 64.111 6.38482C65.7772 6.38482 67.2853 6.77347 68.6352 7.55076C69.964 8.30705 71.0186 9.35745 71.799 10.702C72.5584 12.0255 72.938 13.5275 72.938 15.2082C72.938 16.7207 72.6111 18.0863 71.9572 19.3047C71.3034 20.5022 70.4281 21.437 69.3313 22.1093H79.2024C79.4766 22.1093 79.6981 22.1933 79.8668 22.3614C80.0566 22.5294 80.1515 22.7605 80.1515 23.0546ZM71.1663 15.2082C71.1663 13.8847 70.8604 12.7082 70.2488 11.6788C69.616 10.6284 68.7723 9.79861 67.7177 9.18938C66.642 8.58015 65.4398 8.27553 64.111 8.27553C62.7611 8.27553 61.5588 8.58015 60.5042 9.18938C59.4285 9.79861 58.5848 10.6284 57.9731 11.6788C57.3404 12.7082 57.024 13.8847 57.024 15.2082C57.024 16.5107 57.3404 17.6871 57.9731 18.7375C58.5848 19.7879 59.4285 20.6177 60.5042 21.2269C61.5588 21.8152 62.7611 22.1093 64.111 22.1093C65.4398 22.1093 66.642 21.8152 67.7177 21.2269C68.7723 20.6177 69.616 19.7879 70.2488 18.7375C70.8604 17.6871 71.1663 16.5107 71.1663 15.2082Z" fill="white"/>
</g>
<defs>
<clipPath id="clip0_392_23">
<rect width="111.429" height="24" fill="white"/>
</clipPath>
</defs>
</svg>
