<svg width="71" height="68" viewBox="0 0 71 68" fill="none" xmlns="http://www.w3.org/2000/svg">
<path d="M50.6013 16.4568L50.9772 16.0977L50.6038 15.736L36.0472 1.6408L35.7018 1.30629L35.354 1.63844L20.5981 15.7337L20.217 16.0977L20.6005 16.4591L35.3565 30.3639L35.7017 30.6892L36.0448 30.3616L50.6013 16.4568ZM69.3478 34.3592L69.7213 33.9975L69.3454 33.6384L54.7888 19.7337L54.4435 19.4038L54.0981 19.7337L39.5415 33.6384L39.1656 33.9975L39.5391 34.3592L54.0956 48.4544L54.4435 48.7912L54.7913 48.4544L69.3478 34.3592ZM31.8573 34.3616L32.2384 33.9975L31.8548 33.6361L17.0989 19.7313L16.756 19.4082L16.4131 19.7313L1.6571 33.6361L1.27355 33.9975L1.65463 34.3616L16.4106 48.4568L16.756 48.7867L17.1013 48.4568L31.8573 34.3616ZM50.6013 52.4568L50.9772 52.0977L50.6038 51.736L36.0472 37.6408L35.7018 37.3063L35.354 37.6384L20.5981 51.7337L20.217 52.0977L20.6005 52.4591L35.3565 66.3639L35.7017 66.6892L36.0448 66.3616L50.6013 52.4568Z" stroke="#FEFEFE"/>
</svg>
